<svg xmlns="http://www.w3.org/2000/svg" version="1.1" xmlns:xlink="http://www.w3.org/1999/xlink" xmlns:svgjs="http://svgjs.dev/svgjs" width="1000" height="1000"><style>
    #light-icon {
      display: inline;
    }
    #dark-icon {
      display: none;
    }

    @media (prefers-color-scheme: dark) {
      #light-icon {
        display: none;
      }
      #dark-icon {
        display: inline;
      }
    }
  </style><g id="light-icon"><svg xmlns="http://www.w3.org/2000/svg" version="1.1" xmlns:xlink="http://www.w3.org/1999/xlink" xmlns:svgjs="http://svgjs.dev/svgjs" width="1000" height="1000"><g><g transform="matrix(1.25,0,0,1.25,0,0)"><svg xmlns="http://www.w3.org/2000/svg" version="1.1" xmlns:xlink="http://www.w3.org/1999/xlink" xmlns:svgjs="http://svgjs.dev/svgjs" width="800px" height="800px"><svg fill="#000000" height="800px" width="800px" version="1.1" id="Layer_1" xmlns="http://www.w3.org/2000/svg" xmlns:xlink="http://www.w3.org/1999/xlink" viewBox="0 0 64 64" enable-background="new 0 0 64 64" xml:space="preserve">
<g id="Piggy">
	<path d="M30.8983727,27.5141506c-7.4658165-2.2656002-11.1210003,3.9433002-11.1582165,4.0049
		c-0.2743988,0.4794998-0.1083984,1.0908012,0.3711014,1.3652c0.157299,0.089798,0.3271999,0.1317978,0.4961147,0.1317978
		c0.3466854,0,0.6835842-0.1805992,0.8691845-0.5028992c0.1142006-0.2011986,2.8799-4.8906002,8.8418159-3.0849991
		c0.5311832,0.1611996,1.0868835-0.1385994,1.2469997-0.6669998C31.7255573,28.2328491,31.4276562,27.6742496,30.8983727,27.5141506
		z"></path>
	<path d="M61.489254,35.22015c-0.1982994-0.2206993-0.4814987-0.3485985-0.7802963-0.3300018l-4.8369026,0.1796036
		c-1.1856003-4.1806011-3.4120979-7.292902-6.6288986-9.2666016c-0.0684013-0.7381992-0.0087852-2.8603001,1.947216-6.8437004
		c0.1318817-0.2686005,0.1367836-0.5819988,0.0126839-0.8544998c-0.1240005-0.2724991-0.3632011-0.4755993-0.6523018-0.5517998
		c-4.5487976-1.2147999-9.0370979,3.0508003-10.4267998,4.5342007c-2.6473999-0.6650009-5.3856964-0.8564014-7.5184975-0.9472008
		c-11.2783012-0.4922009-20.5254002,5.0869007-23.7402992,14.2479992c-1.9287-0.4463005-4.1005001-2.3915977-4.8515-3.1933975
		c-0.2724998-0.2919025-0.6943998-0.3935013-1.0663998-0.2587013c-0.375,0.1337013-0.6357999,0.4775009-0.6621001,0.875
		c-0.1855998,2.8045998,0.4502149,5,1.8896003,6.5252991c1.2831998,1.3614006,2.8857999,1.8242989,3.8565001,1.9814987
		c1.165,6.4736023,4.1141996,11.1670036,8.5761147,13.6396027c0.0849991,1.2411995,0.2118855,4.8125,0.3017845,8.014698
		c0.0156002,0.5410004,0.4589996,0.9717026,1,0.9717026h8.0888996c0.4687004,0,0.875-0.3262024,0.9764996-0.7832031
		l0.9082012-4.1005974c1.5614986,0.3466988,2.6826153,0.535099,4.6807003,0.535099
		c2.8104973,0,3.9393997-0.3885994,5.8085976-1.0331993c0.0634995-0.0214996,0.127903-0.0438995,0.1933174-0.0664024
		l0.9081841,4.6406021c0.0918159,0.4687996,0.5029984,0.8077011,0.9814987,0.8077011h7.8906021c0.5527153,0,1-0.4473,1-1v-9.5254021
		c2.7314987-2.3203011,4.3027153-3.9101982,5.4325981-7.892601l4.9902992-0.7577972
		c0.4355011-0.065403,0.7773018-0.410202,0.839817-0.8467026l1.1278839-7.8905983
		C61.7782555,35.7367516,61.6874542,35.439949,61.489254,35.22015z M58.7333717,42.9028511l-4.9014168,0.7440987
		c-0.3964005,0.0596008-0.7187004,0.3516006-0.8182983,0.7402c-1.0410004,4.0663986-2.3809013,5.3311005-5.3125,7.8027992
		c-0.2256012,0.1903992-0.3554993,0.4696999-0.3554993,0.7646027v8.9892998h-6.0674019l-0.9687004-4.9532013
		c-0.0546989-0.2812004-0.2285004-0.5252991-0.4755974-0.669899c-0.2481003-0.1445007-0.5449028-0.1767006-0.8174019-0.0879021
		c-0.4833984,0.1581993-0.9081841,0.3047028-1.2958984,0.4384995c-1.785099,0.6152-2.6816025,0.9238014-5.1571999,0.9238014
		c-2.123085,0-3.1200848-0.2275009-5.1045017-0.6815987l-0.112299-0.0254021
		c-0.2567997-0.0605011-0.5321999-0.0126991-0.7567997,0.1299019c-0.2256012,0.1415977-0.3848,0.3680992-0.4424,0.6278992
		l-0.9521999,4.2979012h-6.3134995c-0.2313862-8.1865997-0.2548008-8.1973-0.8935013-8.5166016
		c-4.3671999-2.2139015-7.0956993-6.6484985-8.1083994-13.1827011c-0.0761995-0.4872971-0.4951-0.8465996-0.9883003-0.8465996
		c-0.0018997,0-0.0049,0-0.0077991,0c-0.0283003,0-1.9297004-0.0293007-3.2539005-1.4335976
		c-0.6562996-0.6953011-1.0790997-1.6231003-1.2655997-2.7715034c1.3544998,1.0635033,3.29,2.2568016,5.1776996,2.2871017
		c0.0059004,0,0.0117006,0,0.0166006,0c0.4384995,0,0.8271999-0.2860985,0.9560995-0.7070007
		c2.6747999-8.737299,11.3242006-14.0879002,22.0058022-13.6348c3.2489967,0.1387005,5.6142998,0.4580002,7.6679993,1.0352001
		c0.375,0.1074009,0.7831993-0.0195999,1.035099-0.3193989c0.0419998-0.0488014,3.8106003-4.4609013,7.5859985-4.5165997
		c-2.2040977,5.0224991-1.4931831,7.2070999-1.3974991,7.4550991c0.0830002,0.2157993,0.2383156,0.3964996,0.4384995,0.5107002
		c3.1436005,1.7910995,5.2588158,4.830101,6.2871017,9.0331993c0.1103973,0.4492989,0.5127144,0.7626991,0.971714,0.7626991
		c0.0116844,0,0.0243835,0,0.0370865-0.0009003l4.4403992-0.1651001L58.7333717,42.9028511z"></path>
	<path d="M13.9726572,10.1440496c0.4520998,0.2812004,1.0458994,0.1416006,1.3270998-0.3095999l1.0058994-1.6190996
		l1.9647999,5.7684994c0.1366997,0.4014006,0.5108013,0.6533003,0.9120998,0.6533003
		c0.1026001,0,0.2080002-0.0165997,0.3106003-0.0516996c0.5039005-0.1718998,0.7734013-0.7188005,0.6014996-1.2227001
		L17.4735565,5.66745c-0.1201-0.3525-0.4326-0.6044998-0.8027-0.6465001c-0.3671989-0.0488-0.7313995,0.1319003-0.9276991,0.4483004
		l-2.0801001,3.3475995C13.3817568,9.2690496,13.5204573,9.8627501,13.9726572,10.1440496z"></path>
	<path d="M45.4413719,32.6352501c-2.0215149,0-3.6660004,1.6445007-3.6660004,3.6660004
		c0,2.0223999,1.6444855,3.6669998,3.6660004,3.6669998c2.0224838,0,3.6669998-1.6445999,3.6669998-3.6669998
		C49.1083717,34.2797508,47.4638557,32.6352501,45.4413719,32.6352501z M45.4413719,37.9682503
		c-0.9189148,0-1.6660004-0.7481003-1.6660004-1.6669998c0-0.9189987,0.7470856-1.6660004,1.6660004-1.6660004
		c0.9189987,0,1.6669998,0.7470016,1.6669998,1.6660004C47.1083717,37.22015,46.3603706,37.9682503,45.4413719,37.9682503z"></path>
	<path d="M17.6083717,19.9760494c5.4921856,0,9.960001-4.4677992,9.960001-9.9599991S23.1005573,0.05615,17.6083717,0.05615
		c-5.4922142,0-9.9599991,4.4677-9.9599991,9.9598999S12.1161575,19.9760494,17.6083717,19.9760494z M17.6083717,1.97605
		c4.4335842,0,8.0400009,3.6064,8.0400009,8.04s-3.6064167,8.0401001-8.0400009,8.0401001
		c-4.4336147,0-8.04-3.6065006-8.04-8.0401001S13.174757,1.97605,17.6083717,1.97605z"></path>
</g>
</svg></svg></g></g></svg></g><g id="dark-icon"><svg xmlns="http://www.w3.org/2000/svg" version="1.1" xmlns:xlink="http://www.w3.org/1999/xlink" xmlns:svgjs="http://svgjs.dev/svgjs" width="1000" height="1000"><g clip-path="url(#SvgjsClipPath1065)"><rect width="1000" height="1000" fill="#ffffff"></rect><g transform="matrix(0.875,0,0,0.875,150,150)"><svg xmlns="http://www.w3.org/2000/svg" version="1.1" xmlns:xlink="http://www.w3.org/1999/xlink" xmlns:svgjs="http://svgjs.dev/svgjs" width="800px" height="800px"><svg fill="#000000" height="800px" width="800px" version="1.1" id="Layer_1" xmlns="http://www.w3.org/2000/svg" xmlns:xlink="http://www.w3.org/1999/xlink" viewBox="0 0 64 64" enable-background="new 0 0 64 64" xml:space="preserve">
<g id="Piggy">
	<path d="M30.8983727,27.5141506c-7.4658165-2.2656002-11.1210003,3.9433002-11.1582165,4.0049
		c-0.2743988,0.4794998-0.1083984,1.0908012,0.3711014,1.3652c0.157299,0.089798,0.3271999,0.1317978,0.4961147,0.1317978
		c0.3466854,0,0.6835842-0.1805992,0.8691845-0.5028992c0.1142006-0.2011986,2.8799-4.8906002,8.8418159-3.0849991
		c0.5311832,0.1611996,1.0868835-0.1385994,1.2469997-0.6669998C31.7255573,28.2328491,31.4276562,27.6742496,30.8983727,27.5141506
		z"></path>
	<path d="M61.489254,35.22015c-0.1982994-0.2206993-0.4814987-0.3485985-0.7802963-0.3300018l-4.8369026,0.1796036
		c-1.1856003-4.1806011-3.4120979-7.292902-6.6288986-9.2666016c-0.0684013-0.7381992-0.0087852-2.8603001,1.947216-6.8437004
		c0.1318817-0.2686005,0.1367836-0.5819988,0.0126839-0.8544998c-0.1240005-0.2724991-0.3632011-0.4755993-0.6523018-0.5517998
		c-4.5487976-1.2147999-9.0370979,3.0508003-10.4267998,4.5342007c-2.6473999-0.6650009-5.3856964-0.8564014-7.5184975-0.9472008
		c-11.2783012-0.4922009-20.5254002,5.0869007-23.7402992,14.2479992c-1.9287-0.4463005-4.1005001-2.3915977-4.8515-3.1933975
		c-0.2724998-0.2919025-0.6943998-0.3935013-1.0663998-0.2587013c-0.375,0.1337013-0.6357999,0.4775009-0.6621001,0.875
		c-0.1855998,2.8045998,0.4502149,5,1.8896003,6.5252991c1.2831998,1.3614006,2.8857999,1.8242989,3.8565001,1.9814987
		c1.165,6.4736023,4.1141996,11.1670036,8.5761147,13.6396027c0.0849991,1.2411995,0.2118855,4.8125,0.3017845,8.014698
		c0.0156002,0.5410004,0.4589996,0.9717026,1,0.9717026h8.0888996c0.4687004,0,0.875-0.3262024,0.9764996-0.7832031
		l0.9082012-4.1005974c1.5614986,0.3466988,2.6826153,0.535099,4.6807003,0.535099
		c2.8104973,0,3.9393997-0.3885994,5.8085976-1.0331993c0.0634995-0.0214996,0.127903-0.0438995,0.1933174-0.0664024
		l0.9081841,4.6406021c0.0918159,0.4687996,0.5029984,0.8077011,0.9814987,0.8077011h7.8906021c0.5527153,0,1-0.4473,1-1v-9.5254021
		c2.7314987-2.3203011,4.3027153-3.9101982,5.4325981-7.892601l4.9902992-0.7577972
		c0.4355011-0.065403,0.7773018-0.410202,0.839817-0.8467026l1.1278839-7.8905983
		C61.7782555,35.7367516,61.6874542,35.439949,61.489254,35.22015z M58.7333717,42.9028511l-4.9014168,0.7440987
		c-0.3964005,0.0596008-0.7187004,0.3516006-0.8182983,0.7402c-1.0410004,4.0663986-2.3809013,5.3311005-5.3125,7.8027992
		c-0.2256012,0.1903992-0.3554993,0.4696999-0.3554993,0.7646027v8.9892998h-6.0674019l-0.9687004-4.9532013
		c-0.0546989-0.2812004-0.2285004-0.5252991-0.4755974-0.669899c-0.2481003-0.1445007-0.5449028-0.1767006-0.8174019-0.0879021
		c-0.4833984,0.1581993-0.9081841,0.3047028-1.2958984,0.4384995c-1.785099,0.6152-2.6816025,0.9238014-5.1571999,0.9238014
		c-2.123085,0-3.1200848-0.2275009-5.1045017-0.6815987l-0.112299-0.0254021
		c-0.2567997-0.0605011-0.5321999-0.0126991-0.7567997,0.1299019c-0.2256012,0.1415977-0.3848,0.3680992-0.4424,0.6278992
		l-0.9521999,4.2979012h-6.3134995c-0.2313862-8.1865997-0.2548008-8.1973-0.8935013-8.5166016
		c-4.3671999-2.2139015-7.0956993-6.6484985-8.1083994-13.1827011c-0.0761995-0.4872971-0.4951-0.8465996-0.9883003-0.8465996
		c-0.0018997,0-0.0049,0-0.0077991,0c-0.0283003,0-1.9297004-0.0293007-3.2539005-1.4335976
		c-0.6562996-0.6953011-1.0790997-1.6231003-1.2655997-2.7715034c1.3544998,1.0635033,3.29,2.2568016,5.1776996,2.2871017
		c0.0059004,0,0.0117006,0,0.0166006,0c0.4384995,0,0.8271999-0.2860985,0.9560995-0.7070007
		c2.6747999-8.737299,11.3242006-14.0879002,22.0058022-13.6348c3.2489967,0.1387005,5.6142998,0.4580002,7.6679993,1.0352001
		c0.375,0.1074009,0.7831993-0.0195999,1.035099-0.3193989c0.0419998-0.0488014,3.8106003-4.4609013,7.5859985-4.5165997
		c-2.2040977,5.0224991-1.4931831,7.2070999-1.3974991,7.4550991c0.0830002,0.2157993,0.2383156,0.3964996,0.4384995,0.5107002
		c3.1436005,1.7910995,5.2588158,4.830101,6.2871017,9.0331993c0.1103973,0.4492989,0.5127144,0.7626991,0.971714,0.7626991
		c0.0116844,0,0.0243835,0,0.0370865-0.0009003l4.4403992-0.1651001L58.7333717,42.9028511z"></path>
	<path d="M13.9726572,10.1440496c0.4520998,0.2812004,1.0458994,0.1416006,1.3270998-0.3095999l1.0058994-1.6190996
		l1.9647999,5.7684994c0.1366997,0.4014006,0.5108013,0.6533003,0.9120998,0.6533003
		c0.1026001,0,0.2080002-0.0165997,0.3106003-0.0516996c0.5039005-0.1718998,0.7734013-0.7188005,0.6014996-1.2227001
		L17.4735565,5.66745c-0.1201-0.3525-0.4326-0.6044998-0.8027-0.6465001c-0.3671989-0.0488-0.7313995,0.1319003-0.9276991,0.4483004
		l-2.0801001,3.3475995C13.3817568,9.2690496,13.5204573,9.8627501,13.9726572,10.1440496z"></path>
	<path d="M45.4413719,32.6352501c-2.0215149,0-3.6660004,1.6445007-3.6660004,3.6660004
		c0,2.0223999,1.6444855,3.6669998,3.6660004,3.6669998c2.0224838,0,3.6669998-1.6445999,3.6669998-3.6669998
		C49.1083717,34.2797508,47.4638557,32.6352501,45.4413719,32.6352501z M45.4413719,37.9682503
		c-0.9189148,0-1.6660004-0.7481003-1.6660004-1.6669998c0-0.9189987,0.7470856-1.6660004,1.6660004-1.6660004
		c0.9189987,0,1.6669998,0.7470016,1.6669998,1.6660004C47.1083717,37.22015,46.3603706,37.9682503,45.4413719,37.9682503z"></path>
	<path d="M17.6083717,19.9760494c5.4921856,0,9.960001-4.4677992,9.960001-9.9599991S23.1005573,0.05615,17.6083717,0.05615
		c-5.4922142,0-9.9599991,4.4677-9.9599991,9.9598999S12.1161575,19.9760494,17.6083717,19.9760494z M17.6083717,1.97605
		c4.4335842,0,8.0400009,3.6064,8.0400009,8.04s-3.6064167,8.0401001-8.0400009,8.0401001
		c-4.4336147,0-8.04-3.6065006-8.04-8.0401001S13.174757,1.97605,17.6083717,1.97605z"></path>
</g>
</svg></svg></g></g><defs><clipPath id="SvgjsClipPath1065"><rect width="1000" height="1000" x="0" y="0" rx="350" ry="350"></rect></clipPath></defs></svg></g></svg>